HIERARCHY
ROOT hip
{
	OFFSET 0.000000 0.000000 0.000000 
	CHANNELS 6 Xposition Yposition Zposition Xrotation Zrotation Yrotation
	JOINT abdomen
	{
		OFFSET 0.000000 3.402643 0.000000 
		CHANNELS 3 Xrotation Zrotation Yrotation
		JOINT chest
		{
			OFFSET 0.000000 8.438565 -0.680529 
			CHANNELS 3 Xrotation Zrotation Yrotation
			JOINT neck
			{
				OFFSET 0.000000 10.207942 -0.272212 
				CHANNELS 3 Xrotation Zrotation Yrotation
				JOINT head
				{
					OFFSET 0.000000 3.130431 0.000000 
					CHANNELS 3 Xrotation Zrotation Yrotation
					End Site
					{
						OFFSET 0.000000 3.130435 0.000000 
					}
				}
			}
			JOINT lCollar
			{
				OFFSET 3.470700 6.669187 -0.816635 
				CHANNELS 3 Yrotation Zrotation Xrotation
				JOINT lShldr
				{
					OFFSET 3.198488 0.000000 0.000000 
					CHANNELS 3 Zrotation Yrotation Xrotation
					JOINT lForeArm
					{
						OFFSET 10.139888 0.000000 0.000000 
						CHANNELS 3 Yrotation Zrotation Xrotation
						JOINT lHand
						{
							OFFSET 8.370511 0.000000 0.000000 
							CHANNELS 3 Zrotation Yrotation Xrotation
							End Site
							{
								OFFSET 4.083176 0.000000 0.000000 
							}
						}
					}
				}
			}
			JOINT rCollar
			{
				OFFSET -3.470700 6.669187 -0.816635 
				CHANNELS 3 Yrotation Zrotation Xrotation
				JOINT rShldr
				{
					OFFSET -3.198488 0.000000 0.000000 
					CHANNELS 3 Zrotation Yrotation Xrotation
					JOINT rForeArm
					{
						OFFSET -10.139888 0.000000 0.000000 
						CHANNELS 3 Yrotation Zrotation Xrotation
						JOINT rHand
						{
							OFFSET -8.370511 0.000000 0.000000 
							CHANNELS 3 Zrotation Yrotation Xrotation
							End Site
							{
								OFFSET -4.083176 0.000000 0.000000 
							}
						}
					}
				}
			}
		}
	}
	JOINT lThigh
	{
		OFFSET 5.308129 -1.633274 1.361059 
		CHANNELS 3 Xrotation Zrotation Yrotation
		JOINT lShin
		{
			OFFSET -2.041588 -20.007561 0.000000 
			CHANNELS 3 Xrotation Zrotation Yrotation
			JOINT lFoot
			{
				OFFSET 0.000000 -19.190928 -1.224953 
				CHANNELS 3 Xrotation Yrotation Zrotation
				End Site
				{
					OFFSET 0.000000 -2.449906 4.627600 
				}
			}
		}
	}
	JOINT rThigh
	{
		OFFSET -5.308129 -1.633274 1.361059 
		CHANNELS 3 Xrotation Zrotation Yrotation
		JOINT rShin
		{
			OFFSET 2.041588 -20.007561 0.000000 
			CHANNELS 3 Xrotation Zrotation Yrotation
			JOINT rFoot
			{
				OFFSET 0.000000 -19.190928 -1.224953 
				CHANNELS 3 Xrotation Yrotation Zrotation
				End Site
				{
					OFFSET 0.000000 -2.449906 4.627600 
				}
			}
		}
	}
}
MOTION
Frames: 13
Frame Time: 0.016667
-21.411541 48.323120 1.123468 0.302734 4.345703 79.179688 54.444431 -11.432238 2.030967 -36.796871 0.000000 0.000000 -34.652542 14.285456 2.422454 6.074219 -1.259766 0.214844 -7.713498 -0.206835 -0.018100 -68.161308 9.252849 -7.030736 -87.018654 -20.309599 -11.920868 -10.402041 -0.873580 -19.623060 7.703730 0.197082 -0.017631 92.114052 -25.814180 -10.592436 83.428047 21.635361 25.130394 2.487343 6.274623 33.838863 1.542339 10.262074 14.627419 17.165871 -5.055951 7.017207 -16.848064 -4.764049 -3.005882 -11.586648 -9.876463 -10.872201 21.472176 -2.881071 -12.089754 -1.170712 -6.909555 7.373486 
-21.156012 47.915524 1.306401 -0.185547 4.531250 78.066406 54.816563 -11.270037 1.640595 -36.796871 0.000000 0.000000 -31.494774 15.047735 4.003726 6.074219 -1.259766 0.214844 -7.713498 -0.206835 -0.018100 -67.757126 8.607312 -6.989787 -85.990150 -20.236591 -13.374676 -11.564409 -1.728715 -22.114738 7.703730 0.197082 -0.017631 93.257294 -25.657297 -10.937860 84.607651 21.049261 24.667469 2.684686 6.576669 33.948021 0.447729 11.575316 14.687160 21.317791 -5.350919 6.272449 -18.741173 -3.598901 -2.936695 -14.856782 -10.853939 -4.787683 27.891953 -0.586862 -6.719071 0.362614 -11.147631 10.425065 
-20.930197 47.437603 1.532778 -0.312500 5.097657 77.128906 55.378151 -10.636217 1.309114 -36.796871 0.000000 0.000000 -29.081247 15.356533 5.732563 6.074219 -1.259766 0.214844 -7.713498 -0.206835 -0.018100 -67.669937 8.024854 -6.720770 -85.136444 -20.331623 -13.317660 -11.678459 -2.244882 -22.352722 7.703730 0.197082 -0.017631 93.550461 -25.964947 -11.365701 85.816910 20.784729 24.372557 2.653405 6.068965 34.161121 -0.245365 12.357519 14.517385 25.099541 -5.538145 5.693234 -19.993750 -2.661681 -2.435224 -17.533430 -12.827187 -5.772520 34.231201 0.292339 -3.148811 0.506546 -5.657839 10.534097 
-20.753550 47.058018 1.823758 -0.175781 5.761718 76.005859 56.256790 -9.836128 0.892767 -36.796871 0.000000 0.000000 -28.013493 15.753343 7.724784 6.074219 -1.259766 0.214844 -7.713498 -0.206835 -0.018100 -68.216476 7.373017 -6.620611 -84.435272 -20.006025 -13.458001 -11.574209 -2.500137 -22.797998 7.703730 0.197082 -0.017631 93.314430 -26.397758 -11.584326 87.191872 20.951794 23.766970 1.984655 5.494950 33.907108 -0.235077 12.507847 14.252070 27.511217 -5.607040 5.573641 -20.761599 -1.731692 -2.157643 -19.567677 -14.860883 -6.606155 39.083729 0.331853 0.552727 -0.182498 -0.388664 12.012507 
-20.661507 46.885376 2.157042 -0.019531 5.917969 74.697266 57.054871 -10.337017 0.082683 -36.796871 0.000000 0.000000 -28.254408 17.033463 9.288781 6.074219 -1.259766 0.214844 -7.713498 -0.206835 -0.018100 -67.633072 6.657844 -6.605306 -83.579254 -19.748093 -12.995418 -11.320712 -2.552152 -22.431812 7.703730 0.197082 -0.017631 94.983109 -26.223579 -11.907322 87.774117 20.343964 23.778894 2.093209 5.729006 34.294327 -0.020671 12.603936 14.367702 28.279997 -5.723550 5.806190 -21.071062 -1.156091 -2.399652 -21.009499 -16.263721 -6.811750 41.342056 0.039089 3.318177 -0.633379 3.293967 13.567109 
-20.630070 46.974548 2.489179 -0.126953 5.761718 73.271484 57.450245 -10.738841 -0.218558 -36.796871 0.000000 0.000000 -28.677738 17.312637 10.979042 6.074219 -1.259766 0.214844 -7.713498 -0.206835 -0.018100 -66.841141 6.284875 -6.939312 -82.660240 -19.228508 -12.777494 -11.954919 -3.208186 -22.278065 7.703730 0.197082 -0.017631 96.640060 -25.883879 -11.965596 87.647171 19.964039 23.750593 2.445311 5.454448 34.246658 0.857038 12.844911 14.991778 27.140217 -5.812082 6.368959 -20.311018 -1.064948 -2.654732 -21.401623 -16.489891 -6.128401 40.611023 -0.702903 4.144248 -0.601709 3.494640 12.640437 
-20.702684 47.286686 2.835610 -0.292969 5.234375 71.865234 57.114559 -10.460152 -0.269133 -36.796871 0.000000 0.000000 -29.436544 17.376129 12.894112 6.074219 -1.259766 0.214844 -7.713498 -0.206835 -0.018100 -66.576294 6.277866 -7.715188 -81.424400 -18.076405 -12.237151 -13.042978 -4.746274 -21.463634 7.703730 0.197082 -0.017631 96.914459 -25.595877 -11.510666 87.081123 20.304476 23.932890 2.079785 4.527869 34.087730 2.040346 13.026101 15.739582 24.317480 -5.752478 7.316909 -18.625927 -1.120440 -2.887323 -20.628592 -15.570963 -4.244783 36.184902 -2.128355 2.844769 0.009621 -0.581375 10.628897 
-20.867321 47.741734 3.215766 -0.185547 4.775391 70.507813 56.550777 -10.299349 -0.333126 -36.796871 0.000000 0.000000 -30.367674 18.109381 13.996649 6.074219 -1.259766 0.214844 -7.713498 -0.206835 -0.018100 -66.296989 5.763130 -8.781151 -80.035057 -16.313711 -12.959898 -13.960093 -5.787704 -22.387100 7.703730 0.197082 -0.017631 96.565010 -25.623638 -11.278024 86.866096 20.614630 24.426430 1.912150 4.127963 34.644329 3.827015 12.430854 16.076702 19.815453 -5.321452 8.832692 -16.628767 -0.665014 -3.653399 -18.061798 -14.468942 -1.247576 27.814133 -3.944199 1.206542 1.477545 -7.581967 9.767509 
-21.044535 48.127048 3.667391 -0.185547 4.355469 68.916016 55.740807 -10.631791 0.118542 -36.796871 0.000000 0.000000 -30.929996 18.562597 14.943014 6.074219 -1.259766 0.214844 -7.713498 -0.206835 -0.018100 -65.979713 5.064406 -10.286218 -79.530258 -14.026755 -15.739937 -14.492789 -5.984661 -25.949816 7.703730 0.197082 -0.017631 96.258919 -25.874153 -11.420502 86.834541 20.618406 25.115191 2.219582 5.377055 35.766609 5.806955 11.890524 16.391163 15.273380 -4.723938 10.383007 -14.702204 0.049223 -4.552643 -13.278136 -12.545532 -3.673881 15.002961 -8.102113 -1.981138 3.461033 -6.938011 9.164996 
-21.207464 48.245949 4.242485 0.185547 3.652342 67.666641 54.526947 -10.942589 0.066693 -36.796871 0.000000 0.000000 -31.719269 18.736601 15.945883 6.074219 -1.259766 0.214844 -7.713498 -0.206835 -0.018100 -65.132973 4.136308 -11.837541 -79.782166 -11.670996 -17.586487 -13.799984 -5.575230 -28.021011 7.703730 0.197082 -0.017631 95.281601 -25.699535 -11.029614 86.454605 20.919333 25.451647 2.653758 6.166621 36.104485 6.458284 11.770366 16.800196 12.817029 -4.403435 11.442986 -13.488850 0.379984 -5.225279 -5.057294 -10.864425 -6.994027 -5.194548 -9.274981 -4.700651 8.658256 -2.293159 7.224984 
-21.350368 48.153339 4.937060 0.908203 3.486328 66.503906 53.914860 -11.883926 -0.660909 -36.796871 0.000000 0.000000 -33.578705 19.342468 16.591749 6.074219 -1.259766 0.214844 -7.713498 -0.206835 -0.018100 -63.805920 2.966306 -12.528465 -79.534462 -10.485606 -17.537189 -13.502268 -5.999580 -27.618412 7.703730 0.197082 -0.017631 94.095505 -25.164057 -10.249287 85.931450 21.526167 25.005775 2.867089 5.511535 35.072182 7.065970 11.676361 17.714460 11.621288 -4.559197 12.390494 -12.651829 -0.170358 -5.853665 -5.292130 -11.607839 -7.209765 -6.022405 -7.271050 -3.931677 5.492661 -1.916955 7.748874 
-21.373810 48.028141 5.710526 1.425781 2.851563 66.240715 53.115990 -11.838222 -1.035806 -36.796871 0.000000 0.000000 -35.495110 19.441229 17.007931 6.074219 -1.259766 0.214844 -7.713498 -0.206835 -0.018100 -62.977875 1.772753 -12.166586 -78.814651 -10.654345 -16.769907 -14.346172 -7.276148 -26.415997 7.703730 0.197082 -0.017631 93.493446 -24.598476 -9.990131 85.009926 21.325342 24.783487 3.250646 5.793210 34.293835 6.912304 12.176886 18.439192 11.084048 -4.575797 12.519752 -12.150034 -0.702662 -6.666080 -5.652587 -11.605739 -7.620255 -5.972725 -6.313551 -4.254038 3.729120 -1.568345 9.668028 
-21.294361 47.868073 6.545739 1.718750 1.552734 66.318359 51.499153 -11.389526 -1.074194 -36.796871 0.000000 0.000000 -36.987846 19.236004 17.230829 6.074219 -1.259766 0.214844 -7.713498 -0.206835 -0.018100 -62.341949 1.127396 -11.741442 -78.983948 -11.199152 -16.712523 -14.420437 -7.626608 -26.431665 7.703730 0.197082 -0.017631 93.931046 -24.409601 -10.502514 83.775749 20.291376 25.471937 4.118112 6.658346 34.960678 5.797606 13.425006 19.276962 11.553932 -4.716131 12.099577 -12.130295 -1.287897 -7.297854 -6.658292 -10.903748 -8.316415 -5.747972 -5.805239 -5.281778 3.902864 -0.560567 10.572468 
